PathFileType	4	(X/Y/Z)	C:\Users\italobelli\Desktop\GitHub\PTbot_officialCBL\Personal_Results\ABD03_noisy1.trc
DataRate	CameraRate	NumFrames	NumMarkers	Units	OrigDataRate	OrigDataStartFrame	OrigNumFrames
106.533333	106.533333	30	9	m	106.533333	301	800
Frame#	Time		gu		centelbow		EpL		centpxt8		centijc7		ij		ts		aa		ai
			X1	Y1	Z1	X2	Y2	Z2	X3	Y3	Z3	X4	Y4	Z4	X5	Y5	Z5	X6	Y6	Z6	X7	Y7	Z7	X8	Y8	Z8	X9	Y9	Z9

301	2.816	-0.10919	0.069108	0.10521	-0.12654	0.28206	0.22896	-0.14481	0.29304	0.20463	-0.046816	-0.15316	-0.008669	-0.046816	0.031938	-0.008669	0	0	0	-0.13585	-0.018092	0.043785	-0.15402	0.086365	0.098699	-0.14302	-0.066847	0.14619
302	2.8254	-0.10917	0.069066	0.10505	-0.1249	0.28269	0.22797	-0.14324	0.29362	0.20367	-0.046816	-0.15316	-0.008669	-0.046816	0.031938	-0.008669	0	0	0	-0.13595	-0.018152	0.04392	-0.15399	0.086417	0.098665	-0.14305	-0.06672	0.14642
303	2.8348	-0.10915	0.069024	0.10489	-0.12327	0.28328	0.22699	-0.14169	0.29419	0.20274	-0.046816	-0.15316	-0.008669	-0.046816	0.031938	-0.008669	0	0	0	-0.13606	-0.01821	0.044053	-0.15396	0.086469	0.098631	-0.14309	-0.066596	0.14664
304	2.8442	-0.10913	0.06898	0.10474	-0.12165	0.28385	0.22602	-0.14014	0.29472	0.20182	-0.046816	-0.15316	-0.008669	-0.046816	0.031938	-0.008669	0	0	0	-0.13616	-0.018268	0.044186	-0.15392	0.08652	0.098599	-0.14312	-0.066473	0.14685
305	2.8536	-0.10911	0.068936	0.10459	-0.12004	0.2844	0.22508	-0.1386	0.29524	0.20091	-0.046816	-0.15316	-0.008669	-0.046816	0.031938	-0.008669	0	0	0	-0.13627	-0.018323	0.044317	-0.15389	0.086569	0.098567	-0.14315	-0.066353	0.14706
306	2.863	-0.10909	0.068891	0.10445	-0.11845	0.28492	0.22415	-0.13708	0.29573	0.20003	-0.046816	-0.15316	-0.008669	-0.046816	0.031938	-0.008669	0	0	0	-0.13637	-0.018377	0.044446	-0.15385	0.086618	0.098537	-0.14318	-0.066235	0.14727
307	2.8723	-0.10907	0.068845	0.1043	-0.11686	0.28541	0.22324	-0.13556	0.29619	0.19916	-0.046816	-0.15316	-0.008669	-0.046816	0.031938	-0.008669	0	0	0	-0.13647	-0.018429	0.044574	-0.15382	0.086666	0.098508	-0.14321	-0.066118	0.14748
308	2.8817	-0.10905	0.068798	0.10416	-0.1153	0.28587	0.22234	-0.13407	0.29663	0.19831	-0.046816	-0.15316	-0.008669	-0.046816	0.031938	-0.008669	0	0	0	-0.13657	-0.018479	0.0447	-0.15378	0.086713	0.098481	-0.14323	-0.066005	0.14768
309	2.8911	-0.10903	0.06875	0.10403	-0.11375	0.28631	0.22147	-0.13259	0.29704	0.19748	-0.046816	-0.15316	-0.008669	-0.046816	0.031938	-0.008669	0	0	0	-0.13668	-0.018528	0.044824	-0.15375	0.08676	0.098454	-0.14325	-0.065893	0.14787
310	2.9005	-0.10902	0.068702	0.1039	-0.11223	0.28671	0.22061	-0.13113	0.29742	0.19668	-0.046816	-0.15316	-0.008669	-0.046816	0.031938	-0.008669	0	0	0	-0.13678	-0.018574	0.044947	-0.15371	0.086805	0.098428	-0.14328	-0.065783	0.14806
311	2.9099	-0.109	0.068653	0.10377	-0.11072	0.28709	0.21977	-0.12969	0.29778	0.19589	-0.046816	-0.15316	-0.008669	-0.046816	0.031938	-0.008669	0	0	0	-0.13688	-0.018619	0.045068	-0.15367	0.086849	0.098404	-0.1433	-0.065676	0.14825
312	2.9193	-0.10898	0.068603	0.10365	-0.10925	0.28743	0.21896	-0.12827	0.2981	0.19512	-0.046816	-0.15316	-0.008669	-0.046816	0.031938	-0.008669	0	0	0	-0.13698	-0.018661	0.045188	-0.15364	0.086893	0.09838	-0.14331	-0.065571	0.14844
313	2.9287	-0.10896	0.068553	0.10353	-0.10779	0.28774	0.21816	-0.12687	0.2984	0.19438	-0.046816	-0.15316	-0.008669	-0.046816	0.031938	-0.008669	0	0	0	-0.13708	-0.018702	0.045305	-0.1536	0.086936	0.098358	-0.14333	-0.065469	0.14862
314	2.938	-0.10894	0.068502	0.10341	-0.10637	0.28802	0.21739	-0.12551	0.29867	0.19365	-0.046816	-0.15316	-0.008669	-0.046816	0.031938	-0.008669	0	0	0	-0.13719	-0.01874	0.04542	-0.15357	0.086977	0.098336	-0.14334	-0.065368	0.14879
315	2.9474	-0.10892	0.06845	0.1033	-0.10497	0.28827	0.21664	-0.12417	0.2989	0.19295	-0.046816	-0.15316	-0.008669	-0.046816	0.031938	-0.008669	0	0	0	-0.13729	-0.018776	0.045534	-0.15353	0.087018	0.098316	-0.14336	-0.06527	0.14896
316	2.9568	-0.10891	0.068398	0.10319	-0.10361	0.28848	0.21592	-0.12286	0.29911	0.19228	-0.046816	-0.15316	-0.008669	-0.046816	0.031938	-0.008669	0	0	0	-0.13739	-0.01881	0.045645	-0.15349	0.087059	0.098297	-0.14337	-0.065175	0.14913
317	2.9662	-0.10889	0.068345	0.10309	-0.10228	0.28866	0.21521	-0.12158	0.29928	0.19162	-0.046816	-0.15316	-0.008669	-0.046816	0.031938	-0.008669	0	0	0	-0.13749	-0.018842	0.045755	-0.15346	0.087098	0.098278	-0.14338	-0.065082	0.14929
318	2.9756	-0.10887	0.068292	0.103	-0.10098	0.2888	0.21454	-0.12033	0.29942	0.191	-0.046816	-0.15316	-0.008669	-0.046816	0.031938	-0.008669	0	0	0	-0.13759	-0.018871	0.045862	-0.15342	0.087137	0.098261	-0.14338	-0.064992	0.14944
319	2.985	-0.10886	0.068239	0.10291	-0.099727	0.28891	0.21388	-0.11912	0.29953	0.19039	-0.046816	-0.15316	-0.008669	-0.046816	0.031938	-0.008669	0	0	0	-0.13769	-0.018898	0.045967	-0.15339	0.087174	0.098244	-0.14339	-0.064904	0.1496
320	2.9944	-0.10884	0.068185	0.10282	-0.098509	0.28898	0.21325	-0.11795	0.2996	0.18981	-0.046816	-0.15316	-0.008669	-0.046816	0.031938	-0.008669	0	0	0	-0.13779	-0.018923	0.046069	-0.15335	0.087211	0.098229	-0.14339	-0.064818	0.14974
321	3.0038	-0.10882	0.06813	0.10274	-0.097328	0.28902	0.21265	-0.11681	0.29964	0.18926	-0.046816	-0.15316	-0.008669	-0.046816	0.031938	-0.008669	0	0	0	-0.13789	-0.018945	0.04617	-0.15332	0.087247	0.098214	-0.14339	-0.064735	0.14989
322	3.0131	-0.10881	0.068073	0.10266	-0.096151	0.28905	0.21206	-0.11567	0.29967	0.18872	-0.046816	-0.15316	-0.008669	-0.046816	0.031938	-0.008669	0	0	0	-0.13799	-0.018966	0.04627	-0.15328	0.087283	0.098202	-0.14339	-0.064653	0.15003
323	3.0225	-0.10879	0.068013	0.10258	-0.094969	0.28907	0.21147	-0.11453	0.2997	0.18818	-0.046816	-0.15316	-0.008669	-0.046816	0.031938	-0.008669	0	0	0	-0.13809	-0.018988	0.04637	-0.15324	0.087319	0.098192	-0.14338	-0.064572	0.15017
324	3.0319	-0.10877	0.06795	0.10251	-0.093783	0.28908	0.21089	-0.11338	0.29972	0.18765	-0.046816	-0.15316	-0.008669	-0.046816	0.031938	-0.008669	0	0	0	-0.13819	-0.01901	0.046469	-0.1532	0.087355	0.098184	-0.14338	-0.064491	0.15031
325	3.0413	-0.10876	0.067884	0.10243	-0.092595	0.28909	0.21032	-0.11223	0.29973	0.18712	-0.046816	-0.15316	-0.008669	-0.046816	0.031938	-0.008669	0	0	0	-0.13829	-0.019031	0.046568	-0.15315	0.087391	0.098178	-0.14336	-0.064411	0.15045
326	3.0507	-0.10874	0.067816	0.10236	-0.091404	0.28909	0.20975	-0.11108	0.29975	0.1866	-0.046816	-0.15316	-0.008669	-0.046816	0.031938	-0.008669	0	0	0	-0.13839	-0.019053	0.046667	-0.1531	0.087426	0.098174	-0.14335	-0.064331	0.15059
327	3.0601	-0.10872	0.067745	0.10229	-0.090211	0.28909	0.20919	-0.10992	0.29975	0.18608	-0.046816	-0.15316	-0.008669	-0.046816	0.031938	-0.008669	0	0	0	-0.13849	-0.019074	0.046765	-0.15305	0.087461	0.098172	-0.14334	-0.064252	0.15073
328	3.0695	-0.1087	0.067673	0.10221	-0.089017	0.28908	0.20863	-0.10877	0.29975	0.18557	-0.046816	-0.15316	-0.008669	-0.046816	0.031938	-0.008669	0	0	0	-0.13859	-0.019095	0.046863	-0.153	0.087497	0.098172	-0.14332	-0.064174	0.15087
329	3.0788	-0.10868	0.067598	0.10214	-0.087824	0.28907	0.20809	-0.10761	0.29975	0.18506	-0.046816	-0.15316	-0.008669	-0.046816	0.031938	-0.008669	0	0	0	-0.13869	-0.019116	0.04696	-0.15294	0.087532	0.098173	-0.1433	-0.064097	0.15101
330	3.0882	-0.10867	0.067522	0.10208	-0.08663	0.28905	0.20755	-0.10645	0.29975	0.18457	-0.046816	-0.15316	-0.008669	-0.046816	0.031938	-0.008669	0	0	0	-0.13879	-0.019137	0.047056	-0.15289	0.087567	0.098176	-0.14328	-0.06402	0.15115
